<?xml version="1.0" standalone="no"?>
<!DOCTYPE svg PUBLIC "-//W3C//DTD SVG 20010904//EN"
 "http://www.w3.org/TR/2001/REC-SVG-20010904/DTD/svg10.dtd">
<svg version="1.0" xmlns="http://www.w3.org/2000/svg"
 width="216.000000pt" height="233.000000pt" viewBox="0 0 216.000000 233.000000"
 preserveAspectRatio="xMidYMid meet">
<metadata>
Created by potrace 1.16, written by Peter Selinger 2001-2019
</metadata>
<g transform="translate(0.000000,233.000000) scale(0.100000,-0.100000)"
fill="#000000" stroke="none">
<path d="M640 1379 l0 -401 -80 -97 c-44 -54 -80 -100 -80 -102 0 -2 23 -3 50
-3 l50 2 186 223 c102 123 189 228 194 232 7 8 88 -86 356 -410 l35 -43 120 0
119 0 -2 498 -3 497 -135 0 -135 0 -5 -264 -5 -264 -220 267 -220 266 -112 0
-113 0 0 -401z"/>
</g>
</svg>
